<?xml version="1.0" encoding="UTF-8"?>
<svg width="39px" height="39px" viewBox="0 0 39 39" version="1.1" xmlns="http://www.w3.org/2000/svg" xmlns:xlink="http://www.w3.org/1999/xlink">
    <!-- Generator: Sketch 53.2 (72643) - https://sketchapp.com -->
    <title>Fill 1</title>
    <desc>Created with Sketch.</desc>
    <g id="DESKTOP" stroke="none" stroke-width="1" fill="none" fill-rule="evenodd">
        <g id="Desktop-Alert-" transform="translate(-90.000000, -113.000000)" fill="#000000">
            <g id="Alert" transform="translate(-1.000000, 100.000000)">
                <path d="M110.497446,41.492471 C109.932256,41.492471 109.473551,41.0345553 109.473551,40.4703378 L109.473551,26.7124253 C109.473551,26.1482078 109.932256,25.6902922 110.497446,25.6902922 C111.062636,25.6902922 111.521341,26.1482078 111.521341,26.7124253 L111.521341,40.4703378 C111.521341,41.0345553 111.062636,41.492471 110.497446,41.492471 L110.497446,41.492471 Z M93.6236559,49.9557337 L127.412192,49.9557337 L110.497446,16.225339 L93.6236559,49.9557337 Z M128.999229,52 L91.9956628,52 C91.4304728,51.984668 90.9840545,51.5144867 91.0004369,50.9502692 C91.0035085,50.8112591 91.0362732,50.6742933 91.0946352,50.5475488 L109.596418,13.5371288 C109.864679,13.040372 110.486183,12.8543438 110.983796,13.1231648 C111.158882,13.2172011 111.304275,13.3613218 111.398474,13.5371288 L129.900257,50.5383496 C130.14292,51.048394 129.927902,51.6575854 129.416978,51.9008531 C129.28592,51.9621811 129.143598,51.9959115 128.999229,52 L128.999229,52 Z M110.497446,47.594606 C111.52646,47.594606 112.360935,46.7615675 112.360935,45.7333015 C112.360935,44.7070798 111.52646,43.8740413 110.497446,43.8740413 C109.468431,43.8740413 108.633957,44.7070798 108.633957,45.7333015 C108.633957,46.7615675 109.468431,47.594606 110.497446,47.594606 L110.497446,47.594606 Z" id="Fill-1"></path>
            </g>
        </g>
    </g>
</svg>