<?xml version="1.0" encoding="UTF-8"?>
<svg width="46px" height="35px" viewBox="0 0 46 35" version="1.1" xmlns="http://www.w3.org/2000/svg" xmlns:xlink="http://www.w3.org/1999/xlink">
    <!-- Generator: Sketch 53.2 (72643) - https://sketchapp.com -->
    <title>hand-card</title>
    <desc>Created with Sketch.</desc>
    <g id="DESKTOP" stroke="none" stroke-width="1" fill="none" fill-rule="evenodd">
        <g id="Desktop-Home" transform="translate(-415.000000, -511.000000)" fill="#FFFFFF" fill-rule="nonzero">
            <g id="hand-card" transform="translate(415.000000, 511.000000)">
                <path d="M32.261,7 L18.071,7 C18.558,10.388 21.479,13 25,13 L30.001,13 L30.001,14 C30.001,16.785 31.64,19.188 34,20.314 L34,26 C34,27.105 33.105,28 32,28 L7.385,28 L7.414,28.191 C7.759,30.436 9.574,32.166 11.832,32.403 L30.822,34.402 C38.935,35.256 46,28.896 46,20.739 C46,13.151 39.849,7 32.261,7 Z" id="Path"></path>
                <path d="M30.001,0 L2.001,0 C0.896,0 0.001,0.895 0.001,2 L0.001,5 L32.001,5 L32.001,2 C32.001,0.895 31.106,0 30.001,0 Z" id="Path"></path>
                <path d="M28.057,15 L25,15 C22.344,15 19.96,13.836 18.311,12 L0.001,12 L0.001,24 C0.001,25.105 0.896,26 2.001,26 L30.001,26 C31.106,26 32.001,25.105 32.001,24 L32.001,21.469 C29.855,20.028 28.356,17.695 28.057,15 Z M13,20 L6,20 C5.448,20 5,19.552 5,19 C5,18.448 5.448,18 6,18 L13,18 C13.552,18 14,18.448 14,19 C14,19.552 13.552,20 13,20 Z" id="Shape"></path>
            </g>
        </g>
    </g>
</svg>