<?xml version="1.0" encoding="UTF-8"?>
<svg width="30px" height="24px" viewBox="0 0 30 24" version="1.1" xmlns="http://www.w3.org/2000/svg" xmlns:xlink="http://www.w3.org/1999/xlink">
    <!-- Generator: Sketch 53.2 (72643) - https://sketchapp.com -->
    <title>Shape</title>
    <desc>Created with Sketch.</desc>
    <g id="DESKTOP" stroke="none" stroke-width="1" fill="none" fill-rule="evenodd">
        <g id="StyleTile" transform="translate(-71.000000, -2334.000000)" fill="#008188" fill-rule="nonzero">
            <g id="Block-Quote" transform="translate(71.000000, 2332.000000)">
                <g id="quote" transform="translate(0.000000, 2.000000)">
                    <path d="M11.7625044,21.92179 C8.97430436,24.51421 4.22595436,23.82876 2.00272436,21.0838 C-0.628555642,17.84188 -1.15394564,11.69747 3.43009436,6.20112 C5.70383436,3.47486 8.44406436,1.40782 11.6479744,-4.36983782e-13 L13.1256244,2.37989 C8.56795436,4.58845 5.16143436,7.58291 4.67869436,12.60335 C6.73506436,12.60335 8.44118436,12.52886 9.96081436,13.07262 C11.6909244,13.6917 12.7418144,14.83984 13.1731044,16.15642 C13.8572844,18.21782 13.5256244,20.28246 11.7625044,21.92179 Z M28.2876444,21.92179 C25.4994444,24.51421 20.7510944,23.82876 18.5278644,21.0838 C15.8965844,17.84188 15.3711944,11.69747 19.9552444,6.20112 C22.2289844,3.47486 24.9692144,1.40782 28.1731244,-4.36983782e-13 L29.6507744,2.37989 C25.0931044,4.58845 21.6865844,7.58291 21.2038444,12.60335 C23.2602144,12.60335 24.9663344,12.52886 26.4859644,13.07262 C28.2160744,13.6917 29.2669644,14.83984 29.6982544,16.15642 C30.3824244,18.21782 30.0507644,20.28246 28.2876444,21.92179 Z" id="Shape"></path>
                </g>
            </g>
        </g>
    </g>
</svg>